<svg preserveAspectRatio="none" overflow="visible" style="display: block;" width="16" height="16" viewBox="0 0 16 16" fill="none" xmlns="http://www.w3.org/2000/svg">
<g id="wallet">
<path id="Vector" d="M14 10.6667V13.3333C14 13.5102 13.9298 13.6797 13.8047 13.8047C13.6797 13.9298 13.5102 14 13.3333 14H3.33333C2.97971 14 2.64057 13.8595 2.39053 13.6095C2.14047 13.3594 2 13.0203 2 12.6667V3.33333M14 10.6667H12C11.6464 10.6667 11.3073 10.5262 11.0572 10.2761C10.8071 10.0261 10.6667 9.68697 10.6667 9.33331C10.6667 8.97971 10.8071 8.64057 11.0572 8.39051C11.3073 8.14046 11.6464 8 12 8H14M14 10.6667C14.1768 10.6667 14.3464 10.5964 14.4714 10.4714C14.5965 10.3464 14.6667 10.1768 14.6667 10V8.66669C14.6667 8.48983 14.5965 8.32029 14.4714 8.19526C14.3464 8.07023 14.1768 8 14 8M2 3.33333C2 2.97971 2.14047 2.64057 2.39053 2.39053C2.64057 2.14047 2.97971 2 3.33333 2H12C12.1768 2 12.3464 2.07024 12.4714 2.19526C12.5965 2.32029 12.6667 2.48986 12.6667 2.66667V4.66667M2 3.33333C2 3.68695 2.14047 4.02609 2.39053 4.27614C2.64057 4.52619 2.97971 4.66667 3.33333 4.66667H13.3333C13.5102 4.66667 13.6797 4.7369 13.8047 4.86193C13.9298 4.98695 14 5.15652 14 5.33333V8" stroke="#FFFFFF" stroke-width="1.14286" stroke-linecap="round"/>
</g>
</svg>
